<svg width="142" height="45" viewBox="0 0 142 45" fill="none" xmlns="http://www.w3.org/2000/svg">
<rect width="142" height="45" rx="22.5" fill="#A22CFF"/>
<path d="M49.3711 13.082H47.2031V15.4258H43.6387C43.7168 14.9277 43.7656 14.4004 43.7656 13.8438H35.7969V15.6016H41.3438C41.041 17.9453 38.9707 19.7715 34.8203 20.6406L35.582 22.418C39.4883 21.5391 42.0762 19.7812 43.1699 17.0859H47.2031V18.8242H42.9453V20.4844H47.2031V22.0273H49.3711V13.082ZM37.75 24.4297H47.2031V25.7383H37.7695V30.5625H49.8398V28.8242H39.9375V27.3594H49.3711V22.7109H37.75V24.4297ZM61.7344 14.918H52.6523V16.6562H59.5859C59.5762 18.1699 59.5273 20.1523 59.0977 22.8281L61.2461 23.0039C61.7344 19.9668 61.7344 17.7402 61.7344 16.168V14.918ZM51.7148 25.2891L51.9297 27.0273C55.0449 27.0469 59.0879 26.9785 62.7305 26.3828L62.6133 24.7617C60.9238 24.9668 59.0781 25.0938 57.2812 25.1719V19.957H55.1328V25.2402C53.9219 25.2695 52.7598 25.2793 51.7148 25.2891ZM63.5312 30.7383H65.7188V22.1055H68.2773V20.2695H65.7188V13.082H63.5312V30.7383ZM87.8867 13.1016H85.7188V25.0352H87.8867V20.0352H90.2695V18.2383H87.8867V13.1016ZM73.7461 22.9258L73.9805 24.625C77.0859 24.625 81.2168 24.5859 84.9766 23.9219L84.8008 22.418C83.3848 22.6035 81.8711 22.7207 80.3672 22.7988V21.7832C82.3008 21.5293 83.5117 20.5918 83.5117 19.2148C83.5117 17.584 81.8223 16.5879 79.2539 16.5977C76.6953 16.5879 74.9863 17.584 74.9961 19.2148C74.9863 20.6016 76.2363 21.5488 78.1992 21.793V22.877C76.6074 22.916 75.0742 22.9258 73.7461 22.9258ZM74.1953 16.0898H84.332V14.4883H80.3672V12.9453H78.1992V14.4883H74.1953V16.0898ZM75.9727 27.4961H85.7188V30.7383H87.8867V25.7969H75.9727V27.4961ZM77.0859 19.2148C77.0664 18.4434 77.8867 18.0527 79.2539 18.0625C80.6211 18.0527 81.4414 18.4434 81.4414 19.2148C81.4414 19.9473 80.6211 20.4062 79.2539 20.3867C77.8867 20.4062 77.0664 19.9473 77.0859 19.2148ZM105.895 13.1016H103.707V25.8555H105.895V13.1016ZM91.5 18.668C91.5 21.2754 93.5801 23.1016 96.2656 23.1016C98.9512 23.1016 101.021 21.2754 101.012 18.668C101.021 16.0996 98.9512 14.2637 96.2656 14.2539C93.5801 14.2637 91.5 16.0996 91.5 18.668ZM93.6289 18.668C93.6191 17.1445 94.752 16.1484 96.2656 16.1484C97.7402 16.1484 98.8828 17.1445 98.8828 18.668C98.8828 20.2305 97.7402 21.207 96.2656 21.207C94.752 21.207 93.6191 20.2305 93.6289 18.668ZM94.2148 30.3867H106.383V28.6289H96.4023V24.5664H94.2148V30.3867Z" fill="white"/>
</svg>
