<svg width="214" height="45" viewBox="0 0 214 45" fill="none" xmlns="http://www.w3.org/2000/svg">
<rect x="1" y="1" width="212" height="43" rx="21.5" fill="white" stroke="#A22CFF" stroke-width="2"/>
<path d="M32.1035 15.625H24.9551V17.3828H30.0527C30.0527 17.8516 30.043 18.3594 30.0234 18.9062L24.4863 19.1797L24.7402 20.8984L29.8867 20.4883C29.8184 21.1035 29.7207 21.7773 29.5645 22.5098C27.4941 22.6367 25.3555 22.6562 23.8027 22.6562L24.0566 24.4727C24.9844 24.4727 26.1172 24.4531 27.3184 24.4043V30.3125H29.4082V24.2773C30.6582 24.1797 31.9082 24.0332 33.0215 23.8281L32.9043 22.1875C32.5039 22.2461 32.084 22.2949 31.6543 22.3438C32.0938 20.0684 32.0938 18.3691 32.1035 16.9727V15.625ZM30.834 27.0312H33.8613V30.8398H35.8926V14.4141H33.8613V25.3711H30.834V27.0312ZM37.3574 31.7383H39.4082V14.082H37.3574V31.7383ZM50.4629 16.5039V15.1953H48.1582V16.5039C48.1484 19.2188 45.4727 21.9531 41.8301 22.6172L42.7871 24.4336C45.7363 23.8086 48.1582 22.002 49.3203 19.6484C50.4727 22.0215 52.8945 23.8184 55.8535 24.4336L56.8301 22.6172C53.1289 21.9727 50.4629 19.2285 50.4629 16.5039ZM41.3418 29.4922H57.4746V27.6953H41.3418V29.4922ZM72.9824 23.3398H62.8066V21.0547H72.416V19.3555H62.8066V17.2266H72.8262V15.4688H60.5996V25.0586H72.9824V23.3398ZM58.627 29.5898H74.7598V27.8125H58.627V29.5898ZM84.6621 24.4141H82.6309V31.5234H88.998V30.127L90.0332 31.6602C91.498 31.0742 92.5039 29.9902 93.0898 28.6914C93.6465 30.0293 94.6426 31.0938 96.2051 31.6602L97.3184 30.0391C95.1406 29.2969 94.1836 27.5098 94.1934 25.6836V24.2773H92.0254V25.6836C92.0254 27.373 91.0781 29.1406 88.998 30.0195V24.4141H86.9863V26.3086H84.6621V24.4141ZM80.8926 18.9062C80.8926 21.3574 82.8555 23.0469 85.5605 23.0469C87.8555 23.0469 89.6621 21.748 90.0918 19.7852H93.2754V23.4375H95.4434V14.082H93.2754V17.9883H90.082C89.6328 16.0742 87.8359 14.7949 85.5605 14.8047C82.8555 14.7949 80.8926 16.4941 80.8926 18.9062ZM82.9629 18.9062C82.9629 17.5098 84.0371 16.5918 85.5605 16.6016C87.0449 16.5918 88.1094 17.5098 88.1191 18.9062C88.1094 20.332 87.0449 21.2695 85.5605 21.2695C84.0371 21.2695 82.9629 20.332 82.9629 18.9062ZM84.6621 29.8633V27.9297H86.9863V29.8633H84.6621ZM112.631 14.082H110.443V31.7578H112.631V14.082ZM98.5098 21.6016C98.5 25.4395 100.443 27.8516 103.119 27.8516C105.766 27.8516 107.719 25.4395 107.729 21.6016C107.719 17.793 105.766 15.3711 103.119 15.3711C100.443 15.3711 98.5 17.793 98.5098 21.6016ZM100.6 21.6016C100.6 18.9062 101.625 17.3242 103.119 17.3242C104.604 17.3242 105.619 18.9062 105.619 21.6016C105.619 24.3164 104.604 25.8887 103.119 25.8984C101.625 25.8887 100.6 24.3164 100.6 21.6016ZM127.924 25.1172C124.125 25.127 121.674 26.3379 121.674 28.4375C121.674 30.4883 124.125 31.7188 127.924 31.7188C131.762 31.7188 134.184 30.4883 134.193 28.4375C134.184 26.3379 131.762 25.127 127.924 25.1172ZM120.014 23.8477H136.029V22.0898H128.373V18.8867H126.225V22.0898H120.014V23.8477ZM121.85 16.6406H131.908C131.908 17.9199 131.879 19.1699 131.439 20.8789L133.588 21.0742C134.086 19.2676 134.086 17.7832 134.076 16.3867V14.9219H121.85V16.6406ZM123.861 28.4375C123.842 27.3633 125.375 26.7578 127.924 26.7578C130.482 26.7578 132.025 27.3633 132.045 28.4375C132.025 29.4727 130.482 30.0391 127.924 30.0391C125.375 30.0391 123.842 29.4727 123.861 28.4375ZM153.373 23.9844H137.24V25.7422H141.107V31.7383H143.334V25.7422H147.24V31.7383H149.447V25.7422H153.373V23.9844ZM138.939 18.6523C138.93 21.0254 141.508 22.5195 145.268 22.5195C149.027 22.5195 151.625 21.0254 151.635 18.6523C151.625 16.25 149.027 14.7168 145.268 14.707C141.508 14.7168 138.93 16.25 138.939 18.6523ZM141.166 18.6523C141.156 17.2656 142.777 16.4648 145.268 16.4648C147.768 16.4648 149.389 17.2656 149.389 18.6523C149.389 20 147.768 20.791 145.268 20.8008C142.777 20.791 141.156 20 141.166 18.6523ZM168.373 14.082H166.225V31.7383H168.373V22.9102H171.088V21.1133H168.373V14.082ZM154.447 18.5352H164.857V16.7969H160.795V14.3359H158.627V16.7969H154.447V18.5352ZM155.268 23.8477C155.248 26.2793 157.143 27.9883 159.721 27.9883C162.26 27.9883 164.145 26.2793 164.154 23.8477C164.145 21.4062 162.26 19.6777 159.721 19.6875C157.143 19.6777 155.248 21.4062 155.268 23.8477ZM157.338 23.8477C157.328 22.4121 158.334 21.4648 159.721 21.4648C161.078 21.4648 162.064 22.4121 162.084 23.8477C162.064 25.2832 161.078 26.2012 159.721 26.1914C158.334 26.2012 157.328 25.2832 157.338 23.8477ZM186.576 14.082H184.389V31.7383H186.576V14.082ZM171.947 26.875L173.08 28.6133C179.262 25.6738 181.303 21.2109 181.303 15.957H172.846V17.6758H179.096C178.705 21.6895 176.576 24.6777 171.947 26.875Z" fill="#A22CFF"/>
</svg>
