<svg width="32" height="32" viewBox="0 0 32 32" fill="none" xmlns="http://www.w3.org/2000/svg">
<path fill-rule="evenodd" clip-rule="evenodd" d="M17.7303 25C17.9519 25 18.1565 24.8811 18.2662 24.6885L22.7275 16.8575C23.3189 15.8195 23.5671 14.6211 23.4366 13.4335L22.9657 9.14862C22.8819 8.38624 22.2834 7.78236 21.5219 7.69177L18.6991 7.35598C16.8357 7.13432 14.9463 7.32646 13.1657 7.91872C12.2863 8.21121 11.5819 8.87867 11.2426 9.74106L8.97047 15.5151C8.91492 15.6563 8.87653 15.8036 8.85612 15.954C8.6838 17.2235 9.7951 18.2943 11.0573 18.0751L15.6117 17.2841C17.0504 17.0342 18.2929 18.3038 18.0122 19.7367L17.125 24.2646C17.0503 24.6456 17.342 25 17.7303 25ZM20.004 25.6785C19.5386 26.4955 18.6706 27 17.7303 27C16.0831 27 14.8455 25.4964 15.1623 23.88L16.0495 19.3522C16.0533 19.3328 16.0512 19.3209 16.0486 19.3124C16.0453 19.3019 16.0385 19.2896 16.0274 19.2783C16.0162 19.2669 16.0041 19.2599 15.9937 19.2563C15.9853 19.2535 15.9735 19.2512 15.954 19.2546L11.3996 20.0456C8.80466 20.4963 6.52003 18.2948 6.8743 15.685C6.91625 15.3759 6.99517 15.073 7.10938 14.7828L9.38149 9.00871C9.93786 7.59481 11.0927 6.50049 12.5345 6.02095C14.5943 5.33584 16.7798 5.11357 18.9354 5.36998L21.7581 5.70577C23.4437 5.90628 24.7683 7.24283 24.9538 8.93016L25.4246 13.2151C25.6012 14.8217 25.2654 16.4431 24.4653 17.8475L20.004 25.6785Z" fill="#D2D1D9"/>
</svg>
