<svg width="32" height="32" viewBox="0 0 32 32" fill="none" xmlns="http://www.w3.org/2000/svg">
<path fill-rule="evenodd" clip-rule="evenodd" d="M14.2698 7.00002C14.0481 7.00002 13.8435 7.11893 13.7338 7.31151L9.27251 15.1425C8.68113 16.1805 8.43296 17.3789 8.56346 18.5665L9.03431 22.8514C9.11809 23.6138 9.71659 24.2176 10.4782 24.3082L13.3009 24.644C15.1643 24.8657 17.0537 24.6735 18.8344 24.0813C19.7137 23.7888 20.4181 23.1213 20.7574 22.2589L23.0296 16.4849C23.0851 16.3437 23.1235 16.1964 23.1439 16.046C23.3162 14.7765 22.2049 13.7057 20.9427 13.9249L16.3883 14.7159C14.9496 14.9658 13.7071 13.6962 13.9879 12.2633L14.8751 7.73545C14.9497 7.35443 14.658 7.00001 14.2698 7.00002ZM11.996 6.3215C12.4615 5.5045 13.3295 5.00002 14.2697 5.00002C15.9169 5 17.1545 6.50358 16.8378 8.12003L15.9505 12.6478C15.9467 12.6672 15.9488 12.6791 15.9515 12.6876C15.9547 12.6981 15.9615 12.7104 15.9726 12.7217C15.9838 12.7331 15.9959 12.7401 16.0063 12.7437C16.0148 12.7465 16.0266 12.7488 16.0461 12.7454L20.6005 11.9544C23.1954 11.5037 25.48 13.7052 25.1257 16.315C25.0838 16.6241 25.0049 16.927 24.8907 17.2172L22.6185 22.9913C22.0622 24.4052 20.9073 25.4995 19.4656 25.9791C17.4058 26.6642 15.2202 26.8864 13.0647 26.63L10.2419 26.2942C8.55632 26.0937 7.2317 24.7572 7.04628 23.0698L6.57542 18.7849C6.39887 17.1783 6.73463 15.5569 7.53473 14.1525L11.996 6.3215Z" fill="#D2D1D9"/>
</svg>
