<svg width="214" height="45" viewBox="0 0 214 45" fill="none" xmlns="http://www.w3.org/2000/svg">
<rect width="214" height="45" rx="22.5" fill="#B3B0B8"/>
<path d="M24.4609 15.625H17.3125V17.3828H22.4102C22.4102 17.8516 22.4004 18.3594 22.3809 18.9062L16.8438 19.1797L17.0977 20.8984L22.2441 20.4883C22.1758 21.1035 22.0781 21.7773 21.9219 22.5098C19.8516 22.6367 17.7129 22.6562 16.1602 22.6562L16.4141 24.4727C17.3418 24.4727 18.4746 24.4531 19.6758 24.4043V30.3125H21.7656V24.2773C23.0156 24.1797 24.2656 24.0332 25.3789 23.8281L25.2617 22.1875C24.8613 22.2461 24.4414 22.2949 24.0117 22.3438C24.4512 20.0684 24.4512 18.3691 24.4609 16.9727V15.625ZM23.1914 27.0312H26.2188V30.8398H28.25V14.4141H26.2188V25.3711H23.1914V27.0312ZM29.7148 31.7383H31.7656V14.082H29.7148V31.7383ZM42.8203 16.5039V15.1953H40.5156V16.5039C40.5059 19.2188 37.8301 21.9531 34.1875 22.6172L35.1445 24.4336C38.0938 23.8086 40.5156 22.002 41.6777 19.6484C42.8301 22.0215 45.252 23.8184 48.2109 24.4336L49.1875 22.6172C45.4863 21.9727 42.8203 19.2285 42.8203 16.5039ZM33.6992 29.4922H49.832V27.6953H33.6992V29.4922ZM65.3398 23.3398H55.1641V21.0547H64.7734V19.3555H55.1641V17.2266H65.1836V15.4688H52.957V25.0586H65.3398V23.3398ZM50.9844 29.5898H67.1172V27.8125H50.9844V29.5898ZM73.543 15.1758C70.7695 15.1758 68.7383 16.9238 68.7578 19.4336C68.7383 21.6113 70.2715 23.2129 72.4883 23.6035V26.2598C70.9062 26.2988 69.3828 26.3086 68.0547 26.3086L68.3672 28.0859C71.3945 28.125 75.4277 28.1055 79.1289 27.4414L78.9727 25.8203C77.5957 26.0059 76.1309 26.1133 74.6562 26.1914V23.584C76.8047 23.1836 78.3281 21.5918 78.3477 19.4336C78.3281 16.9238 76.2578 15.1758 73.543 15.1758ZM70.8672 19.4336C70.8574 17.9492 72 17.0312 73.543 17.0117C75.0566 17.0312 76.1895 17.9492 76.1992 19.4336C76.1895 20.9082 75.0566 21.8555 73.543 21.8359C72 21.8555 70.8574 20.9082 70.8672 19.4336ZM79.9883 31.7383H82.1562V22.9688H84.7148V21.1328H82.1562V14.082H79.9883V31.7383ZM104.227 14.082H102.059V24.7266H104.227V20.3711H106.688V18.5547H104.227V14.082ZM90.3203 17.5195H100.789V15.7812H96.6484V13.9648H94.4805V15.7812H90.3203V17.5195ZM91.2188 21.3281C91.2188 23.2324 92.9766 24.4922 95.5547 24.4922C98.1035 24.4922 99.8613 23.2324 99.8711 21.3281C99.8613 19.4434 98.1133 18.1641 95.5547 18.1641C92.9766 18.1641 91.2188 19.4434 91.2188 21.3281ZM92.8203 31.5234H104.227V25.5664H92.8203V31.5234ZM93.3281 21.3281C93.3184 20.3711 94.2168 19.8047 95.5547 19.8047C96.8926 19.8047 97.8008 20.3711 97.8008 21.3281C97.8008 22.3145 96.8926 22.8711 95.5547 22.8711C94.2168 22.8711 93.3184 22.3145 93.3281 21.3281ZM94.9688 29.7656V27.2852H102.078V29.7656H94.9688ZM111.941 16.1523H107.918V17.9102H110.057C109.93 21.2793 109.354 24.1504 107.41 26.8945L109.109 27.8125C111.463 24.3359 111.922 20.3223 111.941 16.1523ZM111.395 27.8516L113.055 28.7891C114.354 26.8652 115.066 24.7363 115.447 22.5586H117.469V30.8984H119.52V14.5117H117.469V20.8008H115.682C115.848 19.2383 115.877 17.666 115.887 16.1523H112.469V17.9102H114.012C113.934 21.4062 113.514 24.8145 111.395 27.8516ZM120.848 31.7383H122.938V14.082H120.848V31.7383ZM137.566 25.1172C133.768 25.127 131.316 26.3379 131.316 28.4375C131.316 30.4883 133.768 31.7188 137.566 31.7188C141.404 31.7188 143.826 30.4883 143.836 28.4375C143.826 26.3379 141.404 25.127 137.566 25.1172ZM129.656 23.8477H145.672V22.0898H138.016V18.8867H135.867V22.0898H129.656V23.8477ZM131.492 16.6406H141.551C141.551 17.9199 141.521 19.1699 141.082 20.8789L143.23 21.0742C143.729 19.2676 143.729 17.7832 143.719 16.3867V14.9219H131.492V16.6406ZM133.504 28.4375C133.484 27.3633 135.018 26.7578 137.566 26.7578C140.125 26.7578 141.668 27.3633 141.688 28.4375C141.668 29.4727 140.125 30.0391 137.566 30.0391C135.018 30.0391 133.484 29.4727 133.504 28.4375ZM163.016 23.9844H146.883V25.7422H150.75V31.7383H152.977V25.7422H156.883V31.7383H159.09V25.7422H163.016V23.9844ZM148.582 18.6523C148.572 21.0254 151.15 22.5195 154.91 22.5195C158.67 22.5195 161.268 21.0254 161.277 18.6523C161.268 16.25 158.67 14.7168 154.91 14.707C151.15 14.7168 148.572 16.25 148.582 18.6523ZM150.809 18.6523C150.799 17.2656 152.42 16.4648 154.91 16.4648C157.41 16.4648 159.031 17.2656 159.031 18.6523C159.031 20 157.41 20.791 154.91 20.8008C152.42 20.791 150.799 20 150.809 18.6523ZM178.016 14.082H175.867V31.7383H178.016V22.9102H180.73V21.1133H178.016V14.082ZM164.09 18.5352H174.5V16.7969H170.438V14.3359H168.27V16.7969H164.09V18.5352ZM164.91 23.8477C164.891 26.2793 166.785 27.9883 169.363 27.9883C171.902 27.9883 173.787 26.2793 173.797 23.8477C173.787 21.4062 171.902 19.6777 169.363 19.6875C166.785 19.6777 164.891 21.4062 164.91 23.8477ZM166.98 23.8477C166.971 22.4121 167.977 21.4648 169.363 21.4648C170.721 21.4648 171.707 22.4121 171.727 23.8477C171.707 25.2832 170.721 26.2012 169.363 26.1914C167.977 26.2012 166.971 25.2832 166.98 23.8477ZM196.219 14.082H194.031V31.7383H196.219V14.082ZM181.59 26.875L182.723 28.6133C188.904 25.6738 190.945 21.2109 190.945 15.957H182.488V17.6758H188.738C188.348 21.6895 186.219 24.6777 181.59 26.875Z" fill="white"/>
</svg>
