<svg width="189" height="59" viewBox="0 0 189 59" fill="none" xmlns="http://www.w3.org/2000/svg">
<g filter="url(#filter0_d_59_218)">
<rect x="6" y="3" width="177" height="47" rx="23.5" fill="url(#paint0_linear_59_218)"/>
<rect x="7" y="4" width="175" height="45" rx="22.5" stroke="white" stroke-width="2"/>
</g>
<path d="M57.2617 31.832H50.2305V28.3945H55.4258V19.2539H53.2578V22.1445H45.0742V19.2539H42.9062V28.3945H48.082V31.832H41.1289V33.6094H57.2617V31.832ZM45.0742 26.6367V23.8828H53.2578V26.6367H45.0742ZM74.5078 25.25H58.4141V26.9688H65.3477V28.2969H60.3086V29.9375H70.3672V31.0703H60.3281V35.582H72.9844V33.9219H62.457V32.6328H72.4961V28.2969H67.5156V26.9688H74.5078V25.25ZM60.4453 24.1367H72.4375V18.6289H60.4453V24.1367ZM62.5742 22.4375V20.3281H70.2695V22.4375H62.5742ZM96.5781 31.832H89.5469V28.3945H94.7422V19.2539H92.5742V22.1445H84.3906V19.2539H82.2227V28.3945H87.3984V31.832H80.4453V33.6094H96.5781V31.832ZM84.3906 26.6367V23.8828H92.5742V26.6367H84.3906ZM112.516 18.082H110.348V24.5859H107.32V26.3633H110.348V35.7578H112.516V18.082ZM98.3164 21.3828H104.176V24.332H98.375V31.6172H99.7812C102.818 31.6074 105.182 31.5098 107.809 31.0508L107.633 29.2734C105.26 29.7031 103.15 29.791 100.523 29.8008V26.0898H106.305V19.625H98.3164V21.3828ZM128.844 18.082H126.676V35.6992H128.844V26.793H131.461V24.9766H128.844V18.082ZM114.918 30.875L116.148 32.5547C122.018 29.6641 124.166 25.1035 124.176 19.918H115.875V21.7148H121.969C121.539 25.7383 119.215 28.7266 114.918 30.875ZM147.047 18.082H144.859V35.7383H147.047V18.082ZM132.418 30.875L133.551 32.6133C139.732 29.6738 141.773 25.2109 141.773 19.957H133.316V21.6758H139.566C139.176 25.6895 137.047 28.6777 132.418 30.875Z" fill="white"/>
<defs>
<filter id="filter0_d_59_218" x="0" y="0" width="189" height="59" filterUnits="userSpaceOnUse" color-interpolation-filters="sRGB">
<feFlood flood-opacity="0" result="BackgroundImageFix"/>
<feColorMatrix in="SourceAlpha" type="matrix" values="0 0 0 0 0 0 0 0 0 0 0 0 0 0 0 0 0 0 127 0" result="hardAlpha"/>
<feOffset dy="3"/>
<feGaussianBlur stdDeviation="3"/>
<feComposite in2="hardAlpha" operator="out"/>
<feColorMatrix type="matrix" values="0 0 0 0 0.156863 0 0 0 0 0.152941 0 0 0 0 0.160784 0 0 0 0.4 0"/>
<feBlend mode="normal" in2="BackgroundImageFix" result="effect1_dropShadow_59_218"/>
<feBlend mode="normal" in="SourceGraphic" in2="effect1_dropShadow_59_218" result="shape"/>
</filter>
<linearGradient id="paint0_linear_59_218" x1="77.5444" y1="3" x2="77.5444" y2="50" gradientUnits="userSpaceOnUse">
<stop stop-color="#A22CFF"/>
<stop offset="1" stop-color="#5539FF"/>
</linearGradient>
</defs>
</svg>
