<svg width="45" height="58" viewBox="0 0 45 58" fill="none" xmlns="http://www.w3.org/2000/svg">
<g filter="url(#filter0_d_13_146)">
<path d="M22.5 48.7565L21.8379 49.5058L22.5 50.0909L23.1621 49.5058L22.5 48.7565ZM22.5 48.7565C23.1621 49.5058 23.1624 49.5056 23.1626 49.5054L23.1635 49.5046L23.1664 49.5021L23.1767 49.493L23.2146 49.459C23.2476 49.4295 23.2958 49.3861 23.358 49.3295C23.4826 49.2163 23.6637 49.0499 23.8933 48.8344C24.3525 48.4034 25.0061 47.7755 25.7894 46.983C27.3547 45.3992 29.4437 43.1517 31.5353 40.4989C35.6739 35.2496 40 28.195 40 21.4797C40 16.8384 38.1563 12.3872 34.8744 9.10534C31.5925 5.82345 27.1413 3.97971 22.5 3.97971C17.8587 3.97971 13.4075 5.82345 10.1256 9.10534C6.84374 12.3872 5 16.8384 5 21.4797C5 28.195 9.32611 35.2496 13.4647 40.4989C15.5563 43.1517 17.6453 45.3992 19.2106 46.983C19.9939 47.7755 20.6475 48.4034 21.1067 48.8344C21.3363 49.0499 21.5174 49.2163 21.642 49.3295C21.7042 49.3861 21.7524 49.4295 21.7854 49.459L21.8233 49.493L21.8336 49.5021L21.8365 49.5046L21.8374 49.5054C21.8376 49.5056 21.8379 49.5058 22.5 48.7565Z" fill="url(#paint0_linear_13_146)" stroke="white" stroke-width="2"/>
<path d="M22.5 33.8852C29.353 33.8852 34.9085 28.3297 34.9085 21.4767C34.9085 14.6236 29.353 9.06818 22.5 9.06818C15.647 9.06818 10.0915 14.6236 10.0915 21.4767C10.0915 28.3297 15.647 33.8852 22.5 33.8852Z" fill="white"/>
<path d="M30.8292 16.8585L26.4454 12.4778C26.4032 12.4351 26.353 12.4012 26.2976 12.378C26.2422 12.3549 26.1827 12.3429 26.1227 12.3429C26.0627 12.3429 26.0032 12.3549 25.9478 12.378C25.8924 12.4012 25.8422 12.4351 25.8 12.4778L22.4513 15.8265L19.1026 12.4778C19.0604 12.4351 19.0101 12.4012 18.9548 12.378C18.8994 12.3549 18.8399 12.3429 18.7799 12.3429C18.7199 12.3429 18.6604 12.3549 18.605 12.378C18.5496 12.4012 18.4994 12.4351 18.4572 12.4778L14.0734 16.8615C13.9879 16.9472 13.9399 17.0632 13.9399 17.1842C13.9399 17.3052 13.9879 17.4213 14.0734 17.5069L17.6048 21.0383V29.6262C17.6048 29.6262 17.6048 29.6262 17.6048 29.6475C17.6035 29.6698 17.6035 29.6922 17.6048 29.7145C17.6048 29.7358 17.6048 29.7571 17.6048 29.7784C17.6044 29.7855 17.6044 29.7926 17.6048 29.7997C17.6111 29.813 17.6193 29.8253 17.6292 29.8363C17.6385 29.8575 17.6497 29.8779 17.6626 29.8971L17.7083 29.9458C17.7231 29.9616 17.7394 29.9759 17.757 29.9885C17.7751 30.0024 17.7945 30.0146 17.8149 30.025L17.8514 30.0463H17.8788H17.9092C17.948 30.0568 17.9878 30.063 18.028 30.0646H26.8625C26.9026 30.063 26.9424 30.0568 26.9812 30.0463H27.0086H27.036L27.0725 30.025C27.0938 30.0146 27.1142 30.0024 27.1334 29.9885C27.1678 29.9622 27.1985 29.9315 27.2247 29.8971C27.2387 29.878 27.2509 29.8576 27.2613 29.8363C27.269 29.8245 27.2761 29.8123 27.2826 29.7997C27.283 29.7926 27.283 29.7855 27.2826 29.7784C27.2891 29.7575 27.2942 29.7361 27.2978 29.7145C27.299 29.6922 27.299 29.6698 27.2978 29.6475C27.2978 29.6475 27.2978 29.6475 27.2978 29.6262V21.0139L30.8078 17.5039C30.8955 17.4207 30.9469 17.3063 30.9509 17.1856C30.9549 17.0648 30.9112 16.9473 30.8292 16.8585ZM18.5363 21.9455L21.8242 25.2333L18.5363 28.5242V21.9455ZM18.7982 13.4398L21.8181 16.4597L18.0797 20.1981L15.0598 17.1842L18.7982 13.4398ZM19.1817 29.1696L22.4696 25.8787L23.4346 26.8437L25.7604 29.1696H19.1817ZM23.1149 25.2333L26.4058 21.9455V28.5242L24.08 26.1983L23.1149 25.2333ZM22.4604 24.5788L18.7342 20.8374L22.7862 16.7824L26.1349 13.4337L29.858 17.1842L22.4604 24.5788Z" fill="url(#paint1_linear_13_146)"/>
</g>
<defs>
<filter id="filter0_d_13_146" x="0" y="0.979706" width="45" height="56.4456" filterUnits="userSpaceOnUse" color-interpolation-filters="sRGB">
<feFlood flood-opacity="0" result="BackgroundImageFix"/>
<feColorMatrix in="SourceAlpha" type="matrix" values="0 0 0 0 0 0 0 0 0 0 0 0 0 0 0 0 0 0 127 0" result="hardAlpha"/>
<feOffset dy="2"/>
<feGaussianBlur stdDeviation="2"/>
<feComposite in2="hardAlpha" operator="out"/>
<feColorMatrix type="matrix" values="0 0 0 0 0.156863 0 0 0 0 0.152941 0 0 0 0 0.160784 0 0 0 0.4 0"/>
<feBlend mode="normal" in2="BackgroundImageFix" result="effect1_dropShadow_13_146"/>
<feBlend mode="normal" in="SourceGraphic" in2="effect1_dropShadow_13_146" result="shape"/>
</filter>
<linearGradient id="paint0_linear_13_146" x1="39" y1="10.9028" x2="39.5566" y2="48.7483" gradientUnits="userSpaceOnUse">
<stop stop-color="#A22CFF"/>
<stop offset="1" stop-color="#5539FF"/>
</linearGradient>
<linearGradient id="paint1_linear_13_146" x1="30.9512" y1="16.8259" x2="33.5582" y2="32.4683" gradientUnits="userSpaceOnUse">
<stop stop-color="#A22CFF"/>
<stop offset="1" stop-color="#5539FF"/>
</linearGradient>
</defs>
</svg>
