<svg width="25" height="27" viewBox="0 0 25 27" fill="none" xmlns="http://www.w3.org/2000/svg">
<rect width="25" height="27" rx="5" fill="#A22CFF"/>
<path d="M11.2188 15.7793L13.3457 18.5508C12.9805 18.6475 12.5938 18.7012 12.1855 18.7012C9.65039 18.7012 7.85645 16.7783 7.86719 13.2227C7.85645 9.66699 9.65039 7.74414 12.1855 7.74414C14.7314 7.74414 16.5146 9.66699 16.5039 13.2227C16.5146 15.1562 15.9883 16.5957 15.0967 17.5195L13.7754 15.7793H11.2188ZM5.05273 13.2227C5.04199 18.2393 8.09277 21.2148 12.1855 21.2148C13.1631 21.2148 14.0869 21.043 14.9248 20.71L16.2246 22.3535H18.9531L16.7939 19.582C18.3623 18.2178 19.3291 16.0479 19.3184 13.2227C19.3291 8.19531 16.2568 5.23047 12.1855 5.23047C8.09277 5.23047 5.04199 8.19531 5.05273 13.2227Z" fill="white"/>
</svg>
